<?xml version="1.0" encoding="utf-8"?>
<!-- Generator: Adobe Illustrator 26.4.1, SVG Export Plug-In . SVG Version: 6.00 Build 0)  -->
<svg version="1.1" id="Calque_2_00000057844126992197833190000013999804327420180626_"
	 xmlns="http://www.w3.org/2000/svg" xmlns:xlink="http://www.w3.org/1999/xlink" x="0px" y="0px" viewBox="0 0 557.8 389"
	 style="enable-background:new 0 0 557.8 389;" xml:space="preserve">
<style type="text/css">
	.st0{fill:#DCFFFB;}
	.st1{fill:#E6F1FF;}
	.st2{fill:#F3F8FF;}
	.st3{fill:#DD3773;}
	.st4{fill:#2E3A56;}
	.st5{fill:#CC296B;}
	.st6{fill:#33E5E1;}
	.st7{fill:#32C9CB;}
	.st8{fill:none;}
	.st9{fill:#2D3955;}
	.st10{font-family:'Roboto-Bold';}
	.st11{font-size:70px;}
	.st12{font-family:'Roboto-Light';}
</style>
<g id="red-blue">
	<path class="st0" d="M162.2,284.9c-8.9,0-16.1-7.2-16.1-16.1V34.3c0-8.9,7.2-16.1,16.1-16.1h234.4c8.9,0,16.1,7.2,16.1,16.1v234.6
		c0,8.8-7.2,16-16,16L162.2,284.9L162.2,284.9z"/>
	<g>
		<path class="st1" d="M196.5,148.7c0,17.3,14,31.3,31.3,31.3s31.3-14,31.3-31.3v-47.9c0-17.3-14-31.3-31.3-31.3s-31.3,14-31.3,31.3
			C196.5,100.8,196.5,148.7,196.5,148.7z"/>
		<path class="st2" d="M228.1,85.1c-9.2,0-16.6,7.5-16.6,16.6v39.7c0,9.2,7.5,16.6,16.6,16.6c9.2,0,16.6-7.5,16.6-16.6v-39.7
			C244.8,92.6,237.2,85.1,228.1,85.1z"/>
		<path class="st3" d="M274.4,154.8c0-5.5-3.6-10.6-9.1-12.9c-4.4-1.8-9.3-1.4-13.2,1.2c-0.6-0.1-1.7-0.2-3.9-1.1
			c-3-1.3-5.5-2.7-7.6-4.3c-0.1,0-0.1-0.1-0.2-0.2l-1.4-1.1c-0.7-0.5-1.3-1-1.8-1.4c-2.6-2.1-5.3-4.1-8.7-6
			c-11.5-6.1-24-6.1-33.5-0.2c-4.5,2.8-7.9,6.7-10.1,11.2c-2,4.1-2.9,8.6-2.9,13.5V191c0,9.4,2.6,18.2,7.9,26.1
			c6.2,9.4,15.9,16.4,26.7,19.2c3.7,1,7.6,1.5,11.5,1.5c7.3,0,14.7-1.7,21.2-5.1c10.2-5.2,18-13.9,22-24.5c3-7.9,3.3-15.4,3.3-21.2
			L274.4,154.8z"/>
		<path class="st4" d="M228.1,65.2c-19.6,0-35.6,16.1-35.6,35.9v46c0,19.9,16,35.9,35.6,35.9s35.6-16.1,35.6-35.9v-46
			C263.7,81.4,247.7,65.2,228.1,65.2z M251.9,147.2c0,13.3-10.7,24.2-23.8,24.2c-13.1,0-23.8-10.8-23.8-24.2v-46
			c0-13.3,10.7-24.2,23.8-24.2s23.8,10.8,23.8,24.2V147.2z"/>
		<path class="st3" d="M263,184.9c0-5.1,0-25.6,0-30.7c0-2.6-3.4-4.1-5.2-2.2c-0.1,0.1-0.1,0.1-0.1,0.1c-0.1,0-0.1,0.1-0.2,0.1
			c-0.9,0.5-1.2,0.7-2.4,0.9c-3.7,0.8-7.6-0.3-11-1.7c-3.6-1.6-18.2-12-20.8-13.3c-7-3.7-15.7-5-22.6-0.6c-2.6,1.7-4.7,3.9-6,6.6
			c-1.4,3-1.3,6-1.3,9.3c0,7.1,0,29.6,0,36.8c0,7.1,1.6,14.1,5.5,20.1c4.7,7.1,12,12.5,20.3,14.7c17.3,4.5,35.5-4.8,41.8-21.5
			C263.2,197.5,263,191.2,263,184.9z M233.8,145.6C233.4,145.4,233.7,145.6,233.8,145.6L233.8,145.6z"/>
		<path class="st5" d="M257.1,150.3c-4.1,0.2-7.7,3.4-7.7,7.7c0,8.8,0,17.6,0,26.4c0,3.4,0.2,6.8-0.1,10.1c0-0.7-0.3,1.7-0.4,2.2
			c-0.2,0.9-0.5,1.8-0.7,2.7c-0.1,0.2-0.3,0.9-0.3,1c-0.1,0.2-0.2,0.5-0.3,0.7c-0.5,0.9-1,1.8-1.5,2.7c-0.3,0.5-0.7,1-1,1.4
			c0.2-0.2,0.9-1.1-0.1,0.1c-0.6,0.7-1.2,1.4-1.8,2c-0.7,0.6-1.2,1.2-2,1.7c-0.1,0.1-0.1,0.1-0.2,0.1c-0.6,0.4-1.2,0.7-1.7,1.2
			c-0.7,0.5-1.6,0.9-2.4,1.3c-0.1,0-0.2,0.1-0.2,0.1c-0.4,0.2-0.7,0.3-1.2,0.4c-1,0.3-2,0.6-3.1,0.8c-0.1,0-0.4,0.1-0.7,0.2
			c-0.2,0-0.6,0.1-0.7,0.1c-4.3,0.2-6.3,0.1-10.2-1.1c-0.5-0.2-1-0.3-1.5-0.5c-0.1,0-0.6-0.2-0.7-0.2c-0.8-0.4-1.6-0.8-2.3-1.2
			c-0.3-0.2-0.7-0.4-1-0.7c-0.2-0.1-0.5-0.4-0.6-0.4c-0.9-0.9-1.9-1.8-2.7-2.7c-2.7-2.8-4.3-5.4-5.3-9.2c-0.2-0.5-0.2-1-0.3-1.5
			c0-0.2-0.1-0.2-0.1-0.3c-0.1-0.8-0.2-1.6-0.2-2.4c0-0.6,0-1.2,0-1.7c0-1,0-1.9,0-2.9c0-4.8,0-9.5,0-14.3c0-9.5,0-19,0-28.5
			c0-4.1-3.6-7.9-7.7-7.7c-4.1,0.2-7.7,3.4-7.7,7.7c0,8.9,0,17.6,0,26.5c0,5.2,0,10.5,0,15.7c0,4.3,0,8.5,0.9,12.8
			c2.2,9.9,10,19.8,19.2,24.2c8.6,4.1,19.1,5.4,28.3,2.5c9.3-3,17.4-9.8,21.7-18.5c2.9-6,4-12.3,4-19c0-10.5,0-21,0-31.5
			C264.8,153.9,261.3,150.1,257.1,150.3z M236.5,211.8C235.9,212.1,236.2,211.9,236.5,211.8L236.5,211.8z M241.1,209
			C241.8,208.4,241.5,208.7,241.1,209L241.1,209z"/>
		<path class="st2" d="M253.2,185.3c-0.2-2.1-2.2-3.6-4.3-3.4c-2.1,0.2-3.6,2.2-3.4,4.3c0.8,7-1,13.6-5,18
			c-3.4,3.6-7.9,5.4-13.3,5.1c-2.2-0.1-3.9,1.6-4.1,3.6c-0.1,2.2,1.6,3.9,3.6,4.1c0.4,0,0.8,0,1.3,0c7,0,13.4-2.6,18.1-7.6
			C251.8,203.4,254.4,194.7,253.2,185.3z"/>
		<path class="st4" d="M267.6,187.1v-31.5c0-3.2-2-6.2-5-7.5c-2.8-1.2-6-0.7-8.4,1.2c-0.1,0.1-0.2,0.1-0.2,0.2c0,0-0.1,0-0.5,0.1
			c-2.3,0.5-5.3-0.4-7.7-1.4c-1.8-0.8-8.3-5.2-12.3-7.9c-4.1-2.8-6.5-4.4-7.8-5.1c-9.5-5.1-19.7-5.2-27.4-0.3
			c-3.5,2.2-6.2,5.2-7.9,8.7c-1.8,3.9-1.8,7.6-1.8,10.9v36.6c0,8.7,2.2,16.2,6.3,22.6c5.4,8.1,13.7,14.2,22.9,16.6
			c3.2,0.8,6.6,1.2,9.9,1.2c6.3,0,12.6-1.5,18.3-4.5c8.8-4.5,15.5-12,19-21.1C267.6,199.6,267.6,193.2,267.6,187.1z M255.5,202.4
			c-5.2,13.8-20.6,21.7-35,18c-6.8-1.7-13-6.2-17-12.3c-3.1-4.6-4.6-10.4-4.6-17v-36.6c0-2.6,0-4.7,0.8-6.5c0.8-1.7,2.2-3.2,4.1-4.4
			c2.1-1.3,4.6-2,7.2-2c3.1,0,6.5,0.9,9.9,2.6c0.7,0.4,4.1,2.6,6.9,4.5c6.9,4.6,11.5,7.7,13.8,8.8l0.2,0.1c3,1.2,6.6,2.3,10.5,2.3
			c1.9,0.2,4.8,1.2,4.9,5.2v20.6v1.2C257.4,192.5,257.4,197.6,255.5,202.4z"/>
	</g>
	<g>
		<path class="st1" d="M362.3,154.5c0-17.3-14-31.3-31.3-31.3s-31.3,14-31.3,31.3v47.9c0,17.3,14,31.3,31.3,31.3s31.3-14,31.3-31.3
			V154.5z"/>
		<path class="st2" d="M330.7,218.1c9.2,0,16.6-7.5,16.6-16.6v-39.7c0-9.2-7.5-16.6-16.6-16.6c-9.2,0-16.6,7.5-16.6,16.6v39.7
			C314.1,210.7,321.5,218.1,330.7,218.1z"/>
		<path class="st6" d="M284.4,148.5c0,5.5,3.6,10.6,9.1,12.9c4.4,1.8,9.3,1.4,13.2-1.2c0.6,0.1,1.7,0.2,3.9,1.1
			c3,1.3,5.5,2.7,7.6,4.3c0.1,0,0.1,0.1,0.2,0.2l1.4,1.1c0.7,0.5,1.3,1,1.8,1.4c2.6,2.1,5.3,4.1,8.7,6c11.5,6.1,24,6.1,33.5,0.2
			c4.5-2.8,7.9-6.7,10.1-11.2c2-4.1,2.9-8.6,2.9-13.5v-37.5c0-9.4-2.6-18.2-7.9-26.1c-6.2-9.4-15.9-16.4-26.7-19.2
			c-3.7-1-7.6-1.5-11.5-1.5c-7.3,0-14.7,1.7-21.2,5.1c-10.2,5.2-18,13.9-22,24.5c-3,7.9-3.3,15.4-3.3,21.2L284.4,148.5z"/>
		<path class="st4" d="M330.7,238c19.6,0,35.6-16.1,35.6-35.9v-46c0-19.9-16-35.9-35.6-35.9s-35.6,16.1-35.6,35.9v46
			C295.1,221.8,311.1,238,330.7,238z M307,156c0-13.3,10.7-24.2,23.8-24.2s23.8,10.8,23.8,24.2v46c0,13.3-10.7,24.2-23.8,24.2
			c-13.1,0-23.8-10.8-23.8-24.2V156L307,156z"/>
		<path class="st6" d="M295.8,118.3c0,5.1,0,25.6,0,30.7c0,2.6,3.4,4.1,5.2,2.2c0.1-0.1,0.1-0.1,0.1-0.1c0.1,0,0.1-0.1,0.2-0.1
			c0.9-0.5,1.2-0.7,2.4-0.9c3.7-0.8,7.6,0.3,11,1.7c3.6,1.6,18.2,12,20.8,13.3c7,3.7,15.7,5,22.6,0.6c2.6-1.7,4.7-3.9,6-6.6
			c1.4-3,1.3-6,1.3-9.3c0-7.1,0-29.6,0-36.8c0-7.1-1.6-14.1-5.5-20.1c-4.7-7.1-12-12.5-20.3-14.7c-17.3-4.5-35.5,4.8-41.8,21.5
			C295.6,105.7,295.8,112,295.8,118.3z M325,157.7C325.4,157.9,325.1,157.7,325,157.7S325,157.6,325,157.7z"/>
		<path class="st7" d="M301.7,152.9c4.1-0.2,7.7-3.4,7.7-7.7c0-8.8,0-17.6,0-26.4c0-3.4-0.2-6.8,0.1-10.1c0,0.7,0.3-1.7,0.4-2.2
			c0.2-0.9,0.5-1.8,0.7-2.7c0.1-0.2,0.3-0.9,0.3-1c0.1-0.2,0.2-0.5,0.3-0.7c0.5-0.9,1-1.8,1.5-2.7c0.3-0.5,0.7-1,1-1.4
			c-0.2,0.2-0.9,1.1,0.1-0.1c0.6-0.7,1.2-1.4,1.8-2c0.7-0.6,1.2-1.2,2-1.7c0.1-0.1,0.1-0.1,0.2-0.1c0.6-0.4,1.2-0.7,1.7-1.2
			c0.7-0.5,1.6-0.9,2.4-1.3c0.1,0,0.2-0.1,0.2-0.1c0.4-0.2,0.7-0.3,1.2-0.4c1-0.3,2-0.6,3.1-0.8c0.1,0,0.4-0.1,0.7-0.2
			c0.2,0,0.6-0.1,0.7-0.1c4.3-0.2,6.3-0.1,10.2,1.1c0.5,0.2,1,0.3,1.5,0.5c0.1,0,0.6,0.2,0.7,0.2c0.8,0.4,1.6,0.8,2.3,1.2
			c0.3,0.2,0.7,0.4,1,0.7c0.2,0.1,0.5,0.4,0.6,0.4c0.9,0.9,1.9,1.8,2.7,2.7c2.7,2.8,4.3,5.4,5.3,9.2c0.2,0.5,0.2,1,0.3,1.5
			c0,0.2,0.1,0.2,0.1,0.3c0.1,0.8,0.2,1.6,0.2,2.4c0,0.6,0,1.2,0,1.7c0,1,0,1.9,0,2.9c0,4.8,0,9.5,0,14.3c0,9.5,0,19,0,28.5
			c0,4.1,3.6,7.9,7.7,7.7s7.7-3.4,7.7-7.7c0-8.9,0-17.6,0-26.5c0-5.2,0-10.5,0-15.7c0-4.3,0-8.5-0.9-12.8
			c-2.2-9.9-10-19.8-19.2-24.2c-8.6-4.1-19.1-5.4-28.3-2.5c-9.3,3-17.4,9.8-21.7,18.5c-2.9,6-4,12.3-4,19c0,10.5,0,21,0,31.5
			C294,149.3,297.5,153.2,301.7,152.9z M322.4,91.5C322.9,91.2,322.6,91.3,322.4,91.5L322.4,91.5z M317.7,94.2
			C317,94.8,317.4,94.5,317.7,94.2L317.7,94.2z"/>
		<path class="st2" d="M305.6,117.9c0.2,2.1,2.2,3.6,4.3,3.4c2.1-0.2,3.6-2.2,3.4-4.3c-0.8-7,1-13.6,5-18c3.4-3.6,7.9-5.4,13.3-5.1
			c2.2,0.1,3.9-1.6,4.1-3.6c0.1-2.2-1.6-3.9-3.6-4.1c-0.4,0-0.8,0-1.3,0c-7,0-13.4,2.6-18.1,7.6C307,99.8,304.5,108.5,305.6,117.9z"
			/>
		<path class="st4" d="M291.2,116.2v31.5c0,3.2,2,6.2,5,7.5c2.8,1.2,6,0.7,8.4-1.2c0.1-0.1,0.2-0.1,0.2-0.2c0,0,0.1,0,0.5-0.1
			c2.3-0.5,5.3,0.4,7.7,1.4c1.8,0.8,8.3,5.2,12.3,7.9c4.1,2.8,6.5,4.4,7.8,5.1c9.5,5.1,19.7,5.2,27.4,0.3c3.5-2.2,6.2-5.2,7.9-8.7
			c1.8-3.9,1.8-7.6,1.8-10.9V112c0-8.7-2.2-16.2-6.3-22.6c-5.4-8.1-13.7-14.2-22.9-16.6c-3.2-0.8-6.6-1.2-9.9-1.2
			c-6.3,0-12.6,1.5-18.3,4.5c-8.8,4.5-15.5,12-19,21.1C291.2,103.7,291.2,110,291.2,116.2z M303.2,100.9c5.2-13.8,20.6-21.7,35-18
			c6.8,1.7,13,6.2,17,12.3c3.1,4.6,4.6,10.4,4.6,17v36.6c0,2.6,0,4.7-0.8,6.5c-0.8,1.7-2.2,3.2-4.1,4.4c-2.1,1.3-4.6,2-7.2,2
			c-3.1,0-6.5-0.9-9.9-2.6c-0.7-0.4-4.1-2.6-6.9-4.5c-6.9-4.6-11.5-7.7-13.8-8.8l-0.2-0.1c-3-1.2-6.6-2.3-10.5-2.3
			c-1.9-0.2-4.8-1.2-4.9-5.2v-20.6v-1.2C301.5,110.7,301.5,105.6,303.2,100.9z"/>
	</g>
</g>
<g id="Title">
	<rect x="-238.3" y="163.3" class="st8" width="830.5" height="170.4"/>
	<text transform="matrix(1 0 0 1 11.591 357.6245)" class="st9 st10 st11">Capsules</text>
	<text transform="matrix(1 0 0 1 318.9307 357.6255)" class="st9 st12 st11">Articles</text>
</g>
</svg>
