<?xml version="1.0" encoding="utf-8"?>

<svg version="1.1" id="Capsules_x5F_Logo_xA0_Image_1_"
	 xmlns="http://www.w3.org/2000/svg" xmlns:xlink="http://www.w3.org/1999/xlink" x="0px" y="0px" viewBox="0 0 321.9 322"
	 style="enable-background:new 0 0 321.9 322;" xml:space="preserve">
<style type="text/css">
	.st0{display:none;}
	.st1{display:inline;fill:#E6F1FF;}
	.st2{display:inline;fill:#F3F8FF;}
	.st3{display:inline;fill:#CC2964;stroke:#CC2964;stroke-width:23;stroke-miterlimit:10;}
	.st4{display:inline;fill:none;stroke:#2E3A56;stroke-width:23;stroke-miterlimit:10;}
	.st5{display:inline;fill:#CC2964;}
	.st6{display:inline;}
	.st7{fill:#B22C62;}
	.st8{display:inline;fill:none;stroke:#FFFFFF;stroke-width:15;stroke-linecap:round;stroke-miterlimit:10;}
	.st9{display:inline;fill:none;stroke:#2E3A56;stroke-width:20;stroke-linecap:square;stroke-miterlimit:10;}
	.st10{display:inline;fill:#2E3A56;}
	.st11{display:inline;fill:#DD3773;}
	.st12{display:inline;fill:#33E5E1;}
	.st13{display:inline;fill:#32C9CB;}
	.st14{display:inline;fill:#CC296B;}
	.st15{fill:#DCFFFB;}
	.st16{fill:#E6F1FF;}
	.st17{fill:#F3F8FF;}
	.st18{fill:#DD3773;}
	.st19{fill:#2E3A56;}
	.st20{fill:#CC296B;}
	.st21{fill:#33E5E1;}
	.st22{fill:#32C9CB;}
</style>
<g id="vector" class="st0">
	<path class="st1" d="M103.8,148.3c0,33.7,27.3,61,61,61s61-27.3,61-61V55c0-33.7-27.3-61-61-61s-61,27.3-61,61V148.3z"/>
	<path class="st2" d="M165.3,163.5c17.9,0,32.5-14.6,32.5-32.5V53.5c0-17.9-14.6-32.5-32.5-32.5s-32.5,14.6-32.5,32.5V131
		C132.8,148.9,147.4,163.5,165.3,163.5z"/>
	<path class="st3" d="M165,311c-6.6,0-13.1-0.8-19.6-2.5c-18.2-4.7-34.7-16.6-45.2-32.6c-8.2-12.5-13.4-27.5-13.4-44.6v-73.2
		c0-6.5,1-13.9,4.6-21.5c3.2-6.8,8.6-12.7,15.4-17.1c15.1-9.5,35.2-9.3,53.9,0.7c5.7,3,10.6,6.8,15.2,10.5c1.2,1,2.6,2,4,3l2.7,2
		c0.1,0.1,0.2,0.2,0.3,0.2c5,3.6,10.7,6.8,17.3,9.8c4.8,1.9,10.7,3.8,15.4,2.8c0.7-0.2,0.9-0.2,1.5-0.5c4.5-3.8,10.8-4.7,16.4-2.4
		c5.9,2.5,10.8,8.2,10.8,14.6v63.1c0,12.1-0.9,24.6-5.7,37.2c-6.8,18-20.1,32.8-37.4,41.6C189.8,308,177.4,311,165,311z"/>
	<path class="st4" d="M107.4,145.5c0,32.4,25.9,58.7,57.9,58.7s57.9-26.3,57.9-58.7V55.8c0-32.4-25.9-58.7-57.9-58.7
		s-57.9,26.3-57.9,58.7L107.4,145.5L107.4,145.5z"/>
	<path class="st5" d="M233.5,218.9c0-10,0-50,0-59.9c0-5.2-6.5-7.9-10.2-4.2c-0.1,0.1-0.2,0.2-0.2,0.2c-0.1,0-0.2,0.1-0.4,0.2
		c-1.7,0.9-2.3,1.3-4.6,1.8c-7.2,1.6-14.8-0.7-21.5-3.3c-6.9-3.1-35.5-23.4-40.5-26c-13.5-7.2-30.6-9.6-44.1-1.1
		c-5,3.2-9.3,7.6-11.8,13c-2.8,5.9-2.6,11.8-2.6,18.1c0,13.9,0,57.8,0,71.7c0,14,3.1,27.5,10.8,39.3c9.2,13.9,23.4,24.4,39.6,28.6
		c33.7,8.7,69.2-9.4,81.6-42C233.9,243.5,233.5,231.3,233.5,218.9z M176.7,142.5c-0.1,0-0.1-0.1-0.2-0.1
		C175.8,141.8,176.4,142.2,176.7,142.5z"/>
	<g class="st6">
		<g>
			<path class="st7" d="M92.6,141.9c0,17.2,0,34.4,0,51.6c0,10.2,0,20.5,0,30.7c0,8.4,0,16.7,1.8,25c4.4,19.3,19.5,38.6,37.5,47.2
				c16.7,8,37.3,10.5,55.2,4.8c18.1-5.8,33.9-19,42.2-36.2c5.7-11.8,7.7-24,7.7-37.1c0-20.5,0-41,0-61.5c0-7.8-6.9-15.4-15-15
				s-15,6.6-15,15c0,17.2,0,34.4,0,51.6c0,6.8,0.3,13.6-0.3,20.4c0.3-3-0.6,2.8-0.7,3.5c-0.4,1.8-0.9,3.5-1.5,5.3
				c-0.2,0.7-1.3,3.5-0.2,0.8c-0.4,0.8-0.7,1.6-1.1,2.4c-0.9,1.8-1.9,3.6-3,5.3c-0.6,0.9-1.2,1.9-1.9,2.8c0.3-0.5,1.8-2-0.1,0.1
				c-1.2,1.3-2.3,2.7-3.6,3.9c-1.3,1.3-2.6,2.4-4,3.6c2-1.7,0.3-0.2-0.1,0.1c-1.1,0.8-2.2,1.5-3.3,2.2c-1.5,0.9-3.1,1.7-4.7,2.6
				c-2.5,1.3-0.7,0.3-0.1,0.1c-0.8,0.3-1.7,0.6-2.5,0.9c-1.9,0.7-3.9,1.2-5.9,1.6c-0.4,0.1-3.2,0.7-1.4,0.3c1.8-0.3-0.8,0.1-1.3,0.1
				c-8.4,0.4-12.2,0.2-19.8-2.1c-1-0.3-1.9-0.6-2.9-1c-0.3-0.1-2.6-1.1-0.6-0.2c-1.8-0.8-3.6-1.8-5.3-2.8c-0.8-0.5-1.7-1.1-2.5-1.7
				c1.7,1.3-0.2-0.2-0.5-0.5c-1.8-1.7-3.6-3.5-5.4-5.3c-5.4-5.4-8.4-10.4-10.3-17.9c-0.3-1-0.4-2-0.7-2.9c-0.6-2.5,0.2,2-0.1-0.6
				c-0.2-1.6-0.2-3.1-0.3-4.7c0-1.1,0-2.3,0-3.4c0-1.9,0-3.8,0-5.7c0-9.3,0-18.6,0-27.9c0-18.5,0-37,0-55.6c0-7.8-6.9-15.4-15-15
				C99.5,127.3,92.6,133.5,92.6,141.9L92.6,141.9z"/>
		</g>
	</g>
	<path class="st8" d="M163.5,274.1c29.3,1.3,47.1-23.8,43.5-53.4"/>
	<path class="st9" d="M232.4,220.8c0-9.8,0-49.1,0-58.9c0-5.1-6.4-7.7-10.1-4.2c-0.1,0.1-0.2,0.2-0.2,0.2c-0.1,0-0.2,0.1-0.4,0.2
		c-1.7,0.9-2.3,1.3-4.6,1.8c-7.1,1.6-14.6-0.6-21.2-3.2c-6.7-3-34.9-23-39.8-25.6c-13.3-7.1-30.1-9.5-43.4-1
		c-4.9,3.1-9.1,7.5-11.6,12.7c-2.7,5.8-2.6,11.6-2.6,17.8c0,13.7,0,56.8,0,70.5c0,13.7,3,27,10.6,38.6c9,13.7,23,24,38.9,28.1
		c33.1,8.6,68.1-9.2,80.2-41.2C232.7,244.9,232.4,232.9,232.4,220.8z"/>
	<path class="st10" d="M209.8,170.3c0,0,12.6-1.2,12.6,10.5l0.5-13.4L209.8,170.3z"/>
</g>
<g id="mixed" class="st0">
	<path class="st11" d="M255.7,160.2c0-10.6-7.2-20.7-17.8-25.2c-8.5-3.6-18.1-2.7-25.6,2.3c-1.1-0.1-3.3-0.5-7.6-2.1
		c-5.8-2.6-10.6-5.4-14.9-8.4c-0.1-0.1-0.2-0.2-0.3-0.3l-2.7-2c-1.3-1-2.5-1.9-3.6-2.7c-5-4-10.4-8.1-17-11.6
		c-22.4-11.9-46.9-12-65.5-0.2c-8.7,5.5-15.5,13.1-19.7,21.9c-3.8,8.1-5.7,16.7-5.7,26.4v73.2c0,18.4,5.2,35.5,15.3,50.9
		c12.1,18.4,31,32,52,37.4c7.3,1.9,14.9,2.9,22.5,2.9c14.3,0,28.5-3.5,41.3-10c19.9-10.2,35.1-27.2,42.9-47.8
		c5.8-15.3,6.5-30.1,6.5-41.3L255.7,160.2z"/>
	<path class="st12" d="M75.3,147.8c0,10.6,7.2,20.7,17.8,25.2c8.5,3.6,18.1,2.7,25.6-2.3c1.1,0.1,3.3,0.5,7.6,2.1
		c5.8,2.6,10.6,5.4,14.9,8.4c0.1,0.1,0.2,0.2,0.3,0.3l2.7,2c1.3,1,2.5,1.9,3.6,2.7c5,4,10.4,8.1,17,11.6c22.4,11.9,46.9,12,65.5,0.2
		c8.7-5.5,15.5-13.1,19.7-21.9c3.8-8.1,5.7-16.7,5.7-26.4V76.5c0-18.4-5.2-35.5-15.3-50.9c-12.1-18.4-31-32-52-37.4
		c-7.3-1.9-14.9-2.9-22.5-2.9c-14.3,0-28.5,3.5-41.3,10C104.7,5.5,89.5,22.5,81.7,43.1c-5.8,15.3-6.5,30.1-6.5,41.3L75.3,147.8z"/>
	<path class="st12" d="M97.4,89.1c0,10,0,60,0,69.9c0,5.2,6.5,7.9,10.2,4.2c0.1-0.1,0.2-0.2,0.2-0.2c0.1,0,0.2-0.1,0.4-0.2
		c1.7-0.9,2.3-1.3,4.6-1.8c7.2-1.6,14.8,0.7,21.5,3.3c6.9,3.1,35.5,23.4,40.5,26c13.5,7.2,30.6,9.6,44.1,1.1c5-3.2,9.3-7.6,11.8-13
		c2.8-5.9,2.6-11.8,2.6-18.1c0-13.9,0-67.8,0-81.7c0-14-3.1-27.5-10.8-39.3c-9.2-13.9-23.4-24.4-39.6-28.6
		c-33.7-8.7-69.2,9.4-81.6,42C97.1,64.6,97.4,76.8,97.4,89.1z M154.4,175.7c0.7,0.5,0.1,0.1-0.2-0.1
		C154.3,175.6,154.4,175.7,154.4,175.7z"/>
	<path class="st13" d="M108.9,166.6c8.1-0.4,15-6.6,15-15c0-17.2,0-44.4,0-61.6c0-6.6-0.3-13.2,0.2-19.7c-0.1,1.3,0.6-3.5,0.8-4.2
		c0.4-1.8,0.9-3.5,1.5-5.3c0.2-0.4,0.7-1.8,0.7-1.9c0.2-0.5,0.4-0.9,0.7-1.4c0.9-1.8,1.9-3.6,3-5.3c0.6-0.9,1.2-1.9,1.9-2.8
		c-0.3,0.5-1.8,2,0.1-0.1c1.2-1.3,2.3-2.7,3.6-3.9c1.2-1.2,2.5-2.3,3.8-3.5c0.1-0.1,0.2-0.2,0.3-0.2c1.1-0.8,2.2-1.5,3.3-2.2
		c1.5-0.9,3.1-1.7,4.7-2.6c0.1-0.1,0.3-0.1,0.4-0.2c0.8-0.3,1.5-0.6,2.3-0.8c1.9-0.7,3.9-1.2,5.9-1.6c0.2,0,0.8-0.2,1.3-0.3
		c0.5-0.1,1.1-0.2,1.4-0.2c8.4-0.4,12.2-0.2,19.8,2.1c1,0.3,1.9,0.6,2.9,1c0.2,0.1,1.1,0.5,1.4,0.5c1.6,0.7,3.1,1.6,4.5,2.5
		c0.6,0.4,1.3,0.8,1.9,1.2c0.3,0.2,1,0.7,1.1,0.9c1.8,1.7,3.6,3.5,5.4,5.3c5.4,5.4,8.4,10.4,10.3,17.9c0.2,1,0.4,2,0.7,2.9
		c0.1,0.3,0.1,0.5,0.1,0.6c0.2,1.6,0.2,3.1,0.3,4.7c0,1.1,0,2.3,0,3.4c0,1.9,0,3.8,0,5.7c0,9.3,0,28.6,0,37.9c0,18.5,0,37,0,55.6
		c0,7.8,6.9,15.4,15,15s15-6.6,15-15c0-17.2,0-34.4,0-51.6c0-10.2,0-30.5,0-40.7c0-8.4,0-16.7-1.8-25c-4.4-19.3-19.5-38.6-37.5-47.2
		c-16.7-8-37.3-10.5-55.2-4.8c-18.1,5.8-33.9,19-42.2,36.2c-5.7,11.8-7.7,24-7.7,37.1c0,20.5,0,51,0,71.5
		C93.9,159.5,100.8,167,108.9,166.6z M149.2,36.7C150.3,36.1,149.8,36.4,149.2,36.7L149.2,36.7z M140.1,42.1
		C138.8,43.2,139.6,42.5,140.1,42.1L140.1,42.1z"/>
	<path class="st10" d="M88.6,84.8v71.4c0,6.4,3.8,12.1,9.8,14.6c5.5,2.3,11.8,1.4,16.3-2.4c0.2-0.1,0.4-0.2,0.5-0.2
		c0,0,0.2-0.1,0.9-0.2c4.5-1,10.4,0.9,15,2.7c3.5,1.7,16.2,10.2,23.9,15.4c8.1,5.5,12.8-1.4,15.1-0.2c18.5,9.9,38.5,10.1,53.4,0.7
		c6.8-4.3,12.1-0.2,15.3-6.9c3.6-7.5,3.6-14.8,3.6-21.3V77.1c0-16.9-4.1-31.7-12.3-44.1c-10.4-15.8-26.8-27.6-44.8-32.3
		c-6.4-1.6-12.9-2.5-19.4-2.5c-12.3,0-24.5,2.9-35.7,8.7c-17.1,8.8-30.3,23.4-37,41.2C88.5,60.5,88.5,72.9,88.6,84.8z M112,55.1
		c10.2-27,40.2-42.4,68.3-35.1c13.3,3.4,25.3,12.2,33.1,23.9c6,9,9,20.2,9,33.1v81.3c0,5.2,0,9.2-1.6,12.7c-1.6,3.3-4.4,6.3-7.9,8.6
		c-4,2.6-8.8,3.8-14,3.8c-6.1,0-12.8-1.8-19.3-5.2c-1.5-0.8-8.1-5.2-13.4-8.8c-13.4-9-22.5-15.1-27-17.1l-0.4-0.2
		c-5.8-2.3-13-4.6-20.6-4.4c-3.7-0.5-9.4-2.4-9.5-10.2V87.3v-2.5C108.6,74.2,108.5,64.2,112,55.1z"/>
	<path class="st11" d="M233.5,218.9c0-10,0-40,0-49.9c0-5.2-6.5-7.9-10.2-4.2c-0.1,0.1-0.2,0.2-0.2,0.2c-0.1,0-0.2,0.1-0.4,0.2
		c-1.7,0.9-2.3,1.3-4.6,1.8c-7.2,1.6-14.8-0.7-21.5-3.3c-6.9-3.1-35.5-23.4-40.5-26c-13.5-7.2-30.6-9.6-44.1-1.1
		c-5,3.2-9.3,7.6-11.8,13c-2.8,5.9-2.6,11.8-2.6,18.1c0,13.9,0,47.8,0,61.7c0,14,3.1,27.5,10.8,39.3c9.2,13.9,23.4,24.4,39.6,28.6
		c33.7,8.7,69.2-9.4,81.6-42C233.9,243.5,233.5,231.3,233.5,218.9z M176.5,152.3c-0.7-0.5-0.1-0.1,0.2,0.1
		C176.6,152.4,176.6,152.4,176.5,152.3z"/>
	<path class="st14" d="M222,161.4c-8.1,0.4-15,6.6-15,15c0,17.2,0,24.4,0,41.6c0,6.6,0.3,13.2-0.2,19.7c0.1-1.3-0.6,3.5-0.8,4.2
		c-0.4,1.8-0.9,3.5-1.5,5.3c-0.2,0.4-0.7,1.8-0.7,1.9c-0.2,0.5-0.4,0.9-0.7,1.4c-0.9,1.8-1.9,3.6-3,5.3c-0.6,0.9-1.2,1.9-1.9,2.8
		c0.3-0.5,1.8-2-0.1,0.1c-1.2,1.3-2.3,2.7-3.6,3.9c-1.2,1.2-2.5,2.3-3.8,3.5c-0.1,0.1-0.2,0.2-0.3,0.2c-1.1,0.8-2.2,1.5-3.3,2.2
		c-1.5,0.9-3.1,1.7-4.7,2.6c-0.1,0.1-0.3,0.1-0.4,0.2c-0.8,0.3-1.5,0.6-2.3,0.8c-1.9,0.7-3.9,1.2-5.9,1.6c-0.2,0-0.8,0.2-1.3,0.3
		c-0.5,0.1-1.1,0.2-1.4,0.2c-8.4,0.4-12.2,0.2-19.8-2.1c-1-0.3-1.9-0.6-2.9-1c-0.2-0.1-1.1-0.5-1.4-0.5c-1.6-0.7-3.1-1.6-4.5-2.5
		c-0.6-0.4-1.3-0.8-1.9-1.2c-0.3-0.2-1-0.7-1.1-0.9c-1.8-1.7-3.6-3.5-5.4-5.3c-5.4-5.4-8.4-10.4-10.3-17.9c-0.2-1-0.4-2-0.7-2.9
		c-0.1-0.3-0.1-0.5-0.1-0.6c-0.2-1.6-0.2-3.1-0.3-4.7c0-1.1,0-2.3,0-3.4c0-1.9,0-3.8,0-5.7c0-9.3,0-18.6,0-27.9c0-18.5,0-27,0-45.6
		c0-7.8-6.9-15.4-15-15s-15,6.6-15,15c0,17.2,0,24.4,0,41.6c0,10.2,0,20.5,0,30.7c0,8.4,0,16.7,1.8,25c4.4,19.3,19.5,38.6,37.5,47.2
		c16.7,8,37.3,10.5,55.2,4.8c18.1-5.8,33.9-19,42.2-36.2c5.7-11.8,7.7-24,7.7-37.1c0-20.5,0-31,0-51.5
		C237,168.6,230.1,161,222,161.4z M181.7,271.4C180.6,271.9,181.2,271.6,181.7,271.4L181.7,271.4z M190.8,266
		C192.1,264.9,191.4,265.5,190.8,266L190.8,266z"/>
	<path class="st10" d="M242.4,223.2v-51.4c0-6.4-3.8-12.1-9.8-14.6c-5.5-2.3-5.7-11.5-10.2-7.7c-0.2,0.1,0.3,8.9-7.5,10.6
		c-4.5,1-10.4-0.9-15-2.7c-3.5-1.7-16.2-10.2-23.9-15.4c-8.1-5.5-12.8-8.6-15.1-9.8c-18.5-9.9-38.5-10.1-53.4-0.7
		c-6.8,4.3-12.1,10.2-15.3,16.9c-3.6,7.5-3.6,14.8-3.6,21.3V231c0,16.9,4.1,31.7,12.3,44.1c10.4,15.8,26.8,27.6,44.8,32.3
		c6.4,1.6,12.9,2.5,19.4,2.5c12.3,0,24.5-2.9,35.7-8.7c17.1-8.8,30.3-23.4,37-41.2C242.4,247.5,242.4,235.2,242.4,223.2z M219,253
		c-10.2,27-40.2,42.4-68.3,35.1c-13.3-3.4-25.3-12.2-33.1-23.9c-6-9-9-20.2-9-33.1v-61.3c0-5.2,0-9.2,1.6-12.7
		c1.6-3.3,4.4-6.3,7.9-8.6c4-2.6,8.8-3.8,14-3.8c6.1,0,12.8,1.8,19.3,5.2c1.5,0.8,8.1,5.2,13.4,8.8c13.4,9,22.5,15.1,27,17.1
		l0.4,0.2c5.8,2.3,13,4.6,20.6,4.4c3.7,0.5,9.4,2.4,9.5,10.2v30.2v2.5C222.4,233.9,222.4,243.9,219,253z"/>
	<path class="st2" d="M214.4,219.8c-0.5-4.1-4.2-7-8.3-6.5c-4.1,0.5-7,4.2-6.5,8.3c1.7,13.8-1.9,26.5-9.7,35
		c-6.6,7.1-15.5,10.5-26,10.1c-4.1-0.2-7.6,3-7.8,7.1s3,7.6,7.1,7.8c0.9,0,1.7,0.1,2.5,0.1c13.8,0,26.2-5.2,35.1-14.9
		C211.7,255.1,216.6,238,214.4,219.8z"/>
	<path class="st2" d="M116.5,88.2c0.5,4.1,4.2,7,8.3,6.5s7-4.2,6.5-8.3c-1.7-13.8,1.9-26.5,9.7-35c6.6-7.1,15.5-10.5,26-10.1
		c4.1,0.2,7.6-3,7.8-7.1s-3-7.6-7.1-7.8c-0.9,0-1.7-0.1-2.5-0.1c-13.8,0-26.2,5.2-35.1,14.9C119.3,52.9,114.3,70.1,116.5,88.2z"/>
</g>
<g id="blue" class="st0">
	<path class="st1" d="M227.2,159.7c0-33.7-27.3-61-61-61s-61,27.3-61,61V253c0,33.7,27.3,61,61,61s61-27.3,61-61V159.7z"/>
	<path class="st2" d="M165.6,283.7c17.9,0,32.5-14.6,32.5-32.5v-77.5c0-17.9-14.6-32.5-32.5-32.5s-32.5,14.6-32.5,32.5v77.5
		C133.1,269.1,147.6,283.7,165.6,283.7z"/>
	<path class="st12" d="M75.3,147.8c0,10.6,7.2,20.7,17.8,25.2c8.5,3.6,18.1,2.7,25.6-2.3c1.1,0.1,3.3,0.5,7.6,2.1
		c5.8,2.6,10.6,5.4,14.9,8.4c0.1,0.1,0.2,0.2,0.3,0.3l2.7,2c1.3,1,2.5,1.9,3.6,2.7c5,4,10.4,8.1,17,11.6c22.4,11.9,46.9,12,65.5,0.2
		c8.7-5.5,15.5-13.1,19.7-21.9c3.8-8.1,5.7-16.7,5.7-26.4V76.5c0-18.4-5.2-35.5-15.3-50.9c-12.1-18.4-31-32-52-37.4
		c-7.3-1.9-14.9-2.9-22.5-2.9c-14.3,0-28.5,3.5-41.3,10C104.7,5.5,89.5,22.5,81.7,43.1c-5.8,15.3-6.5,30.1-6.5,41.3L75.3,147.8z"/>
	<path class="st10" d="M165.6,322.5c38.3,0,69.4-31.5,69.4-70.2v-89.7c0-38.7-31.1-70.2-69.4-70.2s-69.4,31.5-69.4,70.2v89.7
		C96.2,291,127.3,322.5,165.6,322.5z M119.2,162.6c0-26,20.8-47.2,46.4-47.2s46.4,21.2,46.4,47.2v89.7c0,26-20.8,47.2-46.4,47.2
		s-46.4-21.2-46.4-47.2V162.6z"/>
	<path class="st12" d="M97.4,89.1c0,10,0,50,0,59.9c0,5.2,6.5,7.9,10.2,4.2c0.1-0.1,0.2-0.2,0.2-0.2c0.1,0,0.2-0.1,0.4-0.2
		c1.7-0.9,2.3-1.3,4.6-1.8c7.2-1.6,14.8,0.7,21.5,3.3c6.9,3.1,35.5,23.4,40.5,26c13.5,7.2,30.6,9.6,44.1,1.1c5-3.2,9.3-7.6,11.8-13
		c2.8-5.9,2.6-11.8,2.6-18.1c0-13.9,0-57.8,0-71.7c0-14-3.1-27.5-10.8-39.3c-9.2-13.9-23.4-24.4-39.6-28.6
		c-33.7-8.7-69.2,9.4-81.6,42C97.1,64.6,97.4,76.8,97.4,89.1z M154.4,165.7c0.7,0.5,0.1,0.1-0.2-0.1
		C154.3,165.6,154.4,165.7,154.4,165.7z"/>
	<path class="st13" d="M108.9,156.6c8.1-0.4,15-6.6,15-15c0-17.2,0-34.4,0-51.6c0-6.6-0.3-13.2,0.2-19.7c-0.1,1.3,0.6-3.5,0.8-4.2
		c0.4-1.8,0.9-3.5,1.5-5.3c0.2-0.4,0.7-1.8,0.7-1.9c0.2-0.5,0.4-0.9,0.7-1.4c0.9-1.8,1.9-3.6,3-5.3c0.6-0.9,1.2-1.9,1.9-2.8
		c-0.3,0.5-1.8,2,0.1-0.1c1.2-1.3,2.3-2.7,3.6-3.9c1.2-1.2,2.5-2.3,3.8-3.5c0.1-0.1,0.2-0.2,0.3-0.2c1.1-0.8,2.2-1.5,3.3-2.2
		c1.5-0.9,3.1-1.7,4.7-2.6c0.1-0.1,0.3-0.1,0.4-0.2c0.8-0.3,1.5-0.6,2.3-0.8c1.9-0.7,3.9-1.2,5.9-1.6c0.2,0,0.8-0.2,1.3-0.3
		c0.5-0.1,1.1-0.2,1.4-0.2c8.4-0.4,12.2-0.2,19.8,2.1c1,0.3,1.9,0.6,2.9,1c0.2,0.1,1.1,0.5,1.4,0.5c1.6,0.7,3.1,1.6,4.5,2.5
		c0.6,0.4,1.3,0.8,1.9,1.2c0.3,0.2,1,0.7,1.1,0.9c1.8,1.7,3.6,3.5,5.4,5.3c5.4,5.4,8.4,10.4,10.3,17.9c0.2,1,0.4,2,0.7,2.9
		c0.1,0.3,0.1,0.5,0.1,0.6c0.2,1.6,0.2,3.1,0.3,4.7c0,1.1,0,2.3,0,3.4c0,1.9,0,3.8,0,5.7c0,9.3,0,18.6,0,27.9c0,18.5,0,37,0,55.6
		c0,7.8,6.9,15.4,15,15s15-6.6,15-15c0-17.2,0-34.4,0-51.6c0-10.2,0-20.5,0-30.7c0-8.4,0-16.7-1.8-25c-4.4-19.3-19.5-38.6-37.5-47.2
		c-16.7-8-37.3-10.5-55.2-4.8c-18.1,5.8-33.9,19-42.2,36.2c-5.7,11.8-7.7,24-7.7,37.1c0,20.5,0,41,0,61.5
		C93.9,149.5,100.8,157,108.9,156.6z M149.2,36.7C150.3,36.1,149.8,36.4,149.2,36.7L149.2,36.7z M140.1,42.1
		C138.8,43.2,139.6,42.5,140.1,42.1L140.1,42.1z"/>
	<path class="st2" d="M116.5,88.2c0.5,4.1,4.2,7,8.3,6.5s7-4.2,6.5-8.3c-1.7-13.8,1.9-26.5,9.7-35c6.6-7.1,15.5-10.5,26-10.1
		c4.1,0.2,7.6-3,7.8-7.1s-3-7.6-7.1-7.8c-0.9,0-1.7-0.1-2.5-0.1c-13.8,0-26.2,5.2-35.1,14.9C119.3,52.9,114.3,70.1,116.5,88.2z"/>
	<path class="st10" d="M88.6,84.8v61.4c0,6.4,3.8,12.1,9.8,14.6c5.5,2.3,11.8,1.4,16.3-2.4c0.2-0.1,0.4-0.2,0.5-0.2
		c0,0,0.2-0.1,0.9-0.2c4.5-1,10.4,0.9,15,2.7c3.5,1.7,16.2,10.2,23.9,15.4c8.1,5.5,12.8,8.6,15.1,9.8c18.5,9.9,38.5,10.1,53.4,0.7
		c6.8-4.3,12.1-10.2,15.3-16.9c3.6-7.5,3.6-14.8,3.6-21.3V77.1c0-16.9-4.1-31.7-12.3-44.1c-10.4-15.8-26.8-27.6-44.8-32.3
		c-6.4-1.6-12.9-2.5-19.4-2.5c-12.3,0-24.5,2.9-35.7,8.7c-17.1,8.8-30.3,23.4-37,41.2C88.5,60.5,88.5,72.9,88.6,84.8z M112,55.1
		c10.2-27,40.2-42.4,68.3-35.1c13.3,3.4,25.3,12.2,33.1,23.9c6,9,9,20.2,9,33.1v71.3c0,5.2,0,9.2-1.6,12.7c-1.6,3.3-4.4,6.3-7.9,8.6
		c-4,2.6-8.8,3.8-14,3.8c-6.1,0-12.8-1.8-19.3-5.2c-1.5-0.8-8.1-5.2-13.4-8.8c-13.4-9-22.5-15.1-27-17.1l-0.4-0.2
		c-5.8-2.3-13-4.6-20.6-4.4c-3.7-0.5-9.4-2.4-9.5-10.2V87.3v-2.5C108.6,74.2,108.5,64.2,112,55.1z"/>
</g>
<g id="red" class="st0">
	<path class="st1" d="M103.8,148.3c0,33.7,27.3,61,61,61s61-27.3,61-61V55c0-33.7-27.3-61-61-61s-61,27.3-61,61V148.3z"/>
	<path class="st2" d="M165.3,24.3c-17.9,0-32.5,14.6-32.5,32.5v77.5c0,17.9,14.6,32.5,32.5,32.5s32.5-14.6,32.5-32.5V56.8
		C197.9,38.9,183.3,24.3,165.3,24.3z"/>
	<path class="st11" d="M255.7,160.2c0-10.6-7.2-20.7-17.8-25.2c-8.5-3.6-18.1-2.7-25.6,2.3c-1.1-0.1-3.3-0.5-7.6-2.1
		c-5.8-2.6-10.6-5.4-14.9-8.4c-0.1-0.1-0.2-0.2-0.3-0.3l-2.7-2c-1.3-1-2.5-1.9-3.6-2.7c-5-4-10.4-8.1-17-11.6
		c-22.4-11.9-46.9-12-65.5-0.2c-8.7,5.5-15.5,13.1-19.7,21.9c-3.8,8.1-5.7,16.7-5.7,26.4v73.2c0,18.4,5.2,35.5,15.3,50.9
		c12.1,18.4,31,32,52,37.4c7.3,1.9,14.9,2.9,22.5,2.9c14.3,0,28.5-3.5,41.3-10c19.9-10.2,35.1-27.2,42.9-47.8
		c5.8-15.3,6.5-30.1,6.5-41.3L255.7,160.2z"/>
	<path class="st10" d="M165.3-14.4c-38.3,0-69.4,31.5-69.4,70.2v89.7c0,38.7,31.1,70.2,69.4,70.2s69.4-31.5,69.4-70.2V55.8
		C234.8,17,203.6-14.4,165.3-14.4z M211.8,145.5c0,26-20.8,47.2-46.4,47.2S119,171.5,119,145.5V55.8c0-26,20.8-47.2,46.4-47.2
		s46.4,21.2,46.4,47.2V145.5z"/>
	<path class="st11" d="M233.5,218.9c0-10,0-50,0-59.9c0-5.2-6.5-7.9-10.2-4.2c-0.1,0.1-0.2,0.2-0.2,0.2c-0.1,0-0.2,0.1-0.4,0.2
		c-1.7,0.9-2.3,1.3-4.6,1.8c-7.2,1.6-14.8-0.7-21.5-3.3c-6.9-3.1-35.5-23.4-40.5-26c-13.5-7.2-30.6-9.6-44.1-1.1
		c-5,3.2-9.3,7.6-11.8,13c-2.8,5.9-2.6,11.8-2.6,18.1c0,13.9,0,57.8,0,71.7c0,14,3.1,27.5,10.8,39.3c9.2,13.9,23.4,24.4,39.6,28.6
		c33.7,8.7,69.2-9.4,81.6-42C233.9,243.5,233.5,231.3,233.5,218.9z M176.5,142.3c-0.7-0.5-0.1-0.1,0.2,0.1
		C176.6,142.4,176.6,142.4,176.5,142.3z"/>
	<path class="st14" d="M222,151.4c-8.1,0.4-15,6.6-15,15c0,17.2,0,34.4,0,51.6c0,6.6,0.3,13.2-0.2,19.7c0.1-1.3-0.6,3.5-0.8,4.2
		c-0.4,1.8-0.9,3.5-1.5,5.3c-0.2,0.4-0.7,1.8-0.7,1.9c-0.2,0.5-0.4,0.9-0.7,1.4c-0.9,1.8-1.9,3.6-3,5.3c-0.6,0.9-1.2,1.9-1.9,2.8
		c0.3-0.5,1.8-2-0.1,0.1c-1.2,1.3-2.3,2.7-3.6,3.9c-1.2,1.2-2.5,2.3-3.8,3.5c-0.1,0.1-0.2,0.2-0.3,0.2c-1.1,0.8-2.2,1.5-3.3,2.2
		c-1.5,0.9-3.1,1.7-4.7,2.6c-0.1,0.1-0.3,0.1-0.4,0.2c-0.8,0.3-1.5,0.6-2.3,0.8c-1.9,0.7-3.9,1.2-5.9,1.6c-0.2,0-0.8,0.2-1.3,0.3
		c-0.5,0.1-1.1,0.2-1.4,0.2c-8.4,0.4-12.2,0.2-19.8-2.1c-1-0.3-1.9-0.6-2.9-1c-0.2-0.1-1.1-0.5-1.4-0.5c-1.6-0.7-3.1-1.6-4.5-2.5
		c-0.6-0.4-1.3-0.8-1.9-1.2c-0.3-0.2-1-0.7-1.1-0.9c-1.8-1.7-3.6-3.5-5.4-5.3c-5.4-5.4-8.4-10.4-10.3-17.9c-0.2-1-0.4-2-0.7-2.9
		c-0.1-0.3-0.1-0.5-0.1-0.6c-0.2-1.6-0.2-3.1-0.3-4.7c0-1.1,0-2.3,0-3.4c0-1.9,0-3.8,0-5.7c0-9.3,0-18.6,0-27.9c0-18.5,0-37,0-55.6
		c0-7.8-6.9-15.4-15-15s-15,6.6-15,15c0,17.2,0,34.4,0,51.6c0,10.2,0,20.5,0,30.7c0,8.4,0,16.7,1.8,25c4.4,19.3,19.5,38.6,37.5,47.2
		c16.7,8,37.3,10.5,55.2,4.8c18.1-5.8,33.9-19,42.2-36.2c5.7-11.8,7.7-24,7.7-37.1c0-20.5,0-41,0-61.5
		C237,158.6,230.1,151,222,151.4z M181.7,271.4C180.6,271.9,181.2,271.6,181.7,271.4L181.7,271.4z M190.8,266
		C192.1,264.9,191.4,265.5,190.8,266L190.8,266z"/>
	<path class="st2" d="M214.4,219.8c-0.5-4.1-4.2-7-8.3-6.5c-4.1,0.5-7,4.2-6.5,8.3c1.7,13.8-1.9,26.5-9.7,35
		c-6.6,7.1-15.5,10.5-26,10.1c-4.1-0.2-7.6,3-7.8,7.1s3,7.6,7.1,7.8c0.9,0,1.7,0.1,2.5,0.1c13.8,0,26.2-5.2,35.1-14.9
		C211.7,255.1,216.6,238,214.4,219.8z"/>
	<path class="st10" d="M242.4,223.2v-61.4c0-6.4-3.8-12.1-9.8-14.6c-5.5-2.3-11.8-1.4-16.3,2.4c-0.2,0.1-0.4,0.2-0.5,0.2
		c0,0-0.2,0.1-0.9,0.2c-4.5,1-10.4-0.9-15-2.7c-3.5-1.7-16.2-10.2-23.9-15.4c-8.1-5.5-12.8-8.6-15.1-9.8
		c-18.5-9.9-38.5-10.1-53.4-0.7c-6.8,4.3-12.1,10.2-15.3,16.9c-3.6,7.5-3.6,14.8-3.6,21.3v71.3c0,16.9,4.1,31.7,12.3,44.1
		c10.4,15.8,26.8,27.6,44.8,32.3c6.4,1.6,12.9,2.5,19.4,2.5c12.3,0,24.5-2.9,35.7-8.7c17.1-8.8,30.3-23.4,37-41.2
		C242.4,247.5,242.4,235.2,242.4,223.2z M219,253c-10.2,27-40.2,42.4-68.3,35.1c-13.3-3.4-25.3-12.2-33.1-23.9c-6-9-9-20.2-9-33.1
		v-71.3c0-5.2,0-9.2,1.6-12.7c1.6-3.3,4.4-6.3,7.9-8.6c4-2.6,8.8-3.8,14-3.8c6.1,0,12.8,1.8,19.3,5.2c1.5,0.8,8.1,5.2,13.4,8.8
		c13.4,9,22.5,15.1,27,17.1l0.4,0.2c5.8,2.3,13,4.6,20.6,4.4c3.7,0.5,9.4,2.4,9.5,10.2v40.2v2.5C222.4,233.9,222.4,243.9,219,253z"
		/>
</g>
<g id="red-blue">
	<path class="st15" d="M275.7,322H46.2C20.7,322,0,301.3,0,275.8V46.2C0,20.7,20.7,0,46.2,0h229.5c25.5,0,46.2,20.7,46.2,46.2v229.5
		C321.9,301.3,301.2,322,275.7,322z"/>
	<g>
		<path class="st16" d="M60.8,157.5c0,20.9,16.9,37.8,37.8,37.8s37.8-16.9,37.8-37.8V99.7c0-20.9-16.9-37.8-37.8-37.8
			S60.8,78.8,60.8,99.7C60.8,99.7,60.8,157.5,60.8,157.5z"/>
		<path class="st17" d="M98.9,80.7c-11.1,0-20.1,9-20.1,20.1v48c0,11.1,9,20.1,20.1,20.1s20.1-9,20.1-20.1v-48
			C119.1,89.7,110,80.7,98.9,80.7z"/>
		<path class="st18" d="M154.9,164.9c0-6.6-4.4-12.8-11-15.6c-5.3-2.2-11.2-1.7-15.9,1.4c-0.7-0.1-2.1-0.3-4.7-1.3
			c-3.6-1.6-6.6-3.3-9.2-5.2c-0.1,0-0.1-0.1-0.2-0.2l-1.7-1.3c-0.8-0.6-1.6-1.2-2.2-1.7c-3.1-2.5-6.4-5-10.5-7.2
			c-13.9-7.4-29-7.4-40.5-0.2c-5.4,3.4-9.6,8.1-12.2,13.5c-2.4,5-3.5,10.4-3.5,16.3v45.3c0,11.4,3.2,22,9.5,31.5
			C60.3,251.6,72,260,85,263.4c4.5,1.2,9.2,1.8,13.9,1.8c8.8,0,17.7-2.1,25.6-6.2c12.3-6.3,21.7-16.8,26.6-29.6
			c3.6-9.5,4-18.6,4-25.6L154.9,164.9z"/>
		<path class="st19" d="M98.9,56.7c-23.7,0-43,19.5-43,43.4v55.5c0,24,19.3,43.4,43,43.4s43-19.5,43-43.4v-55.5
			C141.9,76.2,122.6,56.7,98.9,56.7z M127.7,155.7c0,16.1-12.9,29.2-28.7,29.2s-28.7-13.1-28.7-29.2v-55.5C70.3,84.1,83.2,71,99,71
			s28.7,13.1,28.7,29.2V155.7z"/>
		<path class="st18" d="M141.1,201.2c0-6.2,0-30.9,0-37.1c0-3.2-4.1-4.9-6.3-2.6c-0.1,0.1-0.1,0.1-0.1,0.1c-0.1,0-0.1,0.1-0.3,0.1
			c-1.1,0.6-1.4,0.8-2.9,1.1c-4.5,1-9.2-0.4-13.3-2c-4.3-1.9-22-14.5-25.1-16.1c-8.4-4.5-18.9-6-27.3-0.7c-3.1,2-5.7,4.7-7.3,8
			c-1.7,3.6-1.6,7.3-1.6,11.2c0,8.6,0,35.8,0,44.4c0,8.6,1.9,17,6.7,24.3c5.7,8.6,14.5,15.1,24.5,17.7c20.9,5.4,42.9-5.8,50.5-26
			C141.4,216.4,141.1,208.8,141.1,201.2z M105.8,153.8c-0.4-0.3-0.1-0.1,0.1,0.1C105.9,153.8,105.9,153.8,105.8,153.8z"/>
		<path class="st20" d="M134,159.4c-5,0.2-9.3,4.1-9.3,9.3c0,10.6,0,21.3,0,31.9c0,4.1,0.2,8.2-0.1,12.2c0-0.8-0.4,2.1-0.5,2.6
			c-0.3,1.1-0.6,2.2-0.9,3.3c-0.1,0.3-0.4,1.1-0.4,1.2c-0.1,0.3-0.3,0.6-0.4,0.8c-0.6,1.1-1.2,2.2-1.8,3.3c-0.4,0.6-0.8,1.2-1.2,1.7
			c0.2-0.3,1.1-1.3-0.1,0.1c-0.7,0.8-1.4,1.7-2.2,2.4c-0.8,0.7-1.5,1.5-2.4,2.1c-0.1,0.1-0.1,0.1-0.2,0.1c-0.7,0.5-1.4,0.9-2.1,1.4
			c-0.9,0.6-1.9,1.1-2.9,1.6c-0.1,0-0.2,0.1-0.2,0.1c-0.5,0.2-0.9,0.4-1.4,0.5c-1.2,0.4-2.4,0.7-3.7,1c-0.1,0-0.5,0.1-0.8,0.2
			c-0.3,0-0.7,0.1-0.9,0.1c-5.2,0.2-7.6,0.1-12.3-1.3c-0.6-0.2-1.2-0.4-1.8-0.6c-0.1,0-0.7-0.3-0.9-0.3c-1-0.5-1.9-1-2.8-1.5
			c-0.4-0.2-0.8-0.5-1.2-0.8c-0.2-0.1-0.6-0.5-0.7-0.5c-1.1-1.1-2.3-2.2-3.3-3.3c-3.3-3.4-5.2-6.5-6.4-11.1
			c-0.2-0.6-0.3-1.2-0.4-1.8c0-0.2-0.1-0.3-0.1-0.4c-0.1-1-0.2-1.9-0.2-2.9c0-0.7,0-1.4,0-2.1c0-1.2,0-2.3,0-3.5
			c0-5.8,0-11.5,0-17.3c0-11.5,0-22.9,0-34.4c0-4.9-4.3-9.5-9.3-9.3s-9.3,4.1-9.3,9.3c0,10.7,0,21.3,0,32c0,6.3,0,12.7,0,19
			c0,5.2,0,10.3,1.1,15.5c2.7,12,12.1,23.9,23.2,29.2c10.4,4.9,23.1,6.5,34.2,3c11.2-3.6,21-11.8,26.2-22.4
			c3.5-7.3,4.8-14.9,4.8-22.9c0-12.7,0-25.4,0-38.1C143.3,163.8,139,159.2,134,159.4z M109.1,233.7
			C108.4,234,108.7,233.8,109.1,233.7L109.1,233.7z M114.7,230.3C115.5,229.6,115.1,230,114.7,230.3L114.7,230.3z"/>
		<path class="st17" d="M129.3,201.7c-0.3-2.5-2.6-4.4-5.2-4.1c-2.5,0.3-4.4,2.6-4.1,5.2c1,8.5-1.2,16.4-6,21.7
			c-4.1,4.4-9.6,6.5-16.1,6.2c-2.6-0.1-4.7,1.9-4.9,4.4c-0.1,2.6,1.9,4.7,4.4,4.9c0.5,0,1,0,1.6,0c8.5,0,16.2-3.2,21.8-9.2
			C127.6,223.6,130.7,213,129.3,201.7z"/>
		<path class="st19" d="M146.6,203.9v-38c0-3.9-2.4-7.5-6-9c-3.4-1.4-7.3-0.9-10.1,1.5c-0.1,0.1-0.3,0.1-0.3,0.2c0,0-0.1,0-0.6,0.1
			c-2.8,0.6-6.4-0.5-9.3-1.7c-2.2-1-10-6.3-14.8-9.5c-5-3.4-7.9-5.3-9.4-6.1c-11.5-6.1-23.8-6.3-33.1-0.4c-4.2,2.7-7.5,6.3-9.5,10.5
			c-2.2,4.7-2.2,9.2-2.2,13.2v44.2c0,10.5,2.6,19.6,7.6,27.3c6.5,9.8,16.6,17.1,27.7,20c3.9,1,8,1.5,12,1.5c7.6,0,15.2-1.8,22.1-5.4
			c10.6-5.4,18.7-14.5,22.9-25.5C146.6,218.9,146.6,211.2,146.6,203.9z M132.1,222.3c-6.3,16.7-24.9,26.2-42.3,21.7
			c-8.2-2.1-15.7-7.5-20.5-14.8c-3.7-5.6-5.6-12.5-5.6-20.5v-44.2c0-3.2,0-5.7,1-7.9c1-2,2.7-3.9,4.9-5.3c2.5-1.6,5.5-2.4,8.7-2.4
			c3.8,0,7.9,1.1,11.9,3.2c0.9,0.5,5,3.2,8.3,5.4c8.3,5.6,13.9,9.3,16.7,10.6l0.3,0.1c3.6,1.4,8,2.8,12.7,2.8
			c2.3,0.3,5.8,1.5,5.9,6.3v24.9v1.5C134.3,210.4,134.3,216.6,132.1,222.3z"/>
	</g>
	<g>
		<path class="st16" d="M261,164.5c0-20.9-16.9-37.8-37.8-37.8s-37.8,16.9-37.8,37.8v57.8c0,20.9,16.9,37.8,37.8,37.8
			s37.8-16.9,37.8-37.8V164.5z"/>
		<path class="st17" d="M222.9,241.3c11.1,0,20.1-9,20.1-20.1v-48c0-11.1-9-20.1-20.1-20.1s-20.1,9-20.1,20.1v48
			C202.8,232.3,211.8,241.3,222.9,241.3z"/>
		<path class="st21" d="M167,157.2c0,6.6,4.4,12.8,11,15.6c5.3,2.2,11.2,1.7,15.9-1.4c0.7,0.1,2.1,0.3,4.7,1.3
			c3.6,1.6,6.6,3.3,9.2,5.2c0.1,0,0.1,0.1,0.2,0.2l1.7,1.3c0.8,0.6,1.6,1.2,2.2,1.7c3.1,2.5,6.4,5,10.5,7.2
			c13.9,7.4,29,7.4,40.5,0.2c5.4-3.4,9.6-8.1,12.2-13.5c2.4-5,3.5-10.4,3.5-16.3v-45.3c0-11.4-3.2-22-9.5-31.5
			c-7.5-11.4-19.2-19.8-32.2-23.2c-4.5-1.2-9.2-1.8-13.9-1.8c-8.8,0-17.7,2.1-25.6,6.2c-12.3,6.3-21.7,16.8-26.6,29.6
			c-3.6,9.5-4,18.6-4,25.6L167,157.2z"/>
		<path class="st19" d="M222.9,265.3c23.7,0,43-19.5,43-43.4v-55.5c0-24-19.3-43.4-43-43.4s-43,19.5-43,43.4v55.5
			C179.9,245.8,199.2,265.3,222.9,265.3z M194.2,166.3c0-16.1,12.9-29.2,28.7-29.2c15.8,0,28.7,13.1,28.7,29.2v55.5
			c0,16.1-12.9,29.2-28.7,29.2c-15.8,0-28.7-13.1-28.7-29.2L194.2,166.3L194.2,166.3z"/>
		<path class="st21" d="M180.7,120.8c0,6.2,0,30.9,0,37.1c0,3.2,4.1,4.9,6.3,2.6c0.1-0.1,0.1-0.1,0.1-0.1c0.1,0,0.1-0.1,0.3-0.1
			c1.1-0.6,1.4-0.8,2.9-1.1c4.5-1,9.2,0.4,13.3,2c4.3,1.9,22,14.5,25.1,16.1c8.4,4.5,18.9,6,27.3,0.7c3.1-2,5.7-4.7,7.3-8
			c1.7-3.6,1.6-7.3,1.6-11.2c0-8.6,0-35.8,0-44.4c0-8.6-1.9-17-6.7-24.3c-5.7-8.6-14.5-15.1-24.5-17.7c-20.9-5.4-42.9,5.8-50.5,26
			C180.5,105.6,180.7,113.2,180.7,120.8z M216,168.3c0.4,0.3,0.1,0.1-0.1-0.1C215.9,168.2,216,168.2,216,168.3z"/>
		<path class="st22" d="M187.8,162.6c5-0.2,9.3-4.1,9.3-9.3c0-10.6,0-21.3,0-31.9c0-4.1-0.2-8.2,0.1-12.2c0,0.8,0.4-2.1,0.5-2.6
			c0.3-1.1,0.6-2.2,0.9-3.3c0.1-0.3,0.4-1.1,0.4-1.2c0.1-0.3,0.3-0.6,0.4-0.8c0.6-1.1,1.2-2.2,1.8-3.3c0.4-0.6,0.8-1.2,1.2-1.7
			c-0.2,0.3-1.1,1.3,0.1-0.1c0.7-0.8,1.4-1.7,2.2-2.4c0.8-0.7,1.5-1.5,2.4-2.1c0.1-0.1,0.1-0.1,0.2-0.1c0.7-0.5,1.4-0.9,2.1-1.4
			c0.9-0.6,1.9-1.1,2.9-1.6c0.1,0,0.2-0.1,0.2-0.1c0.5-0.2,0.9-0.4,1.4-0.5c1.2-0.4,2.4-0.7,3.7-1c0.1,0,0.5-0.1,0.8-0.2
			c0.3,0,0.7-0.1,0.9-0.1c5.2-0.2,7.6-0.1,12.3,1.3c0.6,0.2,1.2,0.4,1.8,0.6c0.1,0,0.7,0.3,0.9,0.3c1,0.5,1.9,1,2.8,1.5
			c0.4,0.2,0.8,0.5,1.2,0.8c0.2,0.1,0.6,0.5,0.7,0.5c1.1,1.1,2.3,2.2,3.3,3.3c3.3,3.4,5.2,6.5,6.4,11.1c0.2,0.6,0.3,1.2,0.4,1.8
			c0,0.2,0.1,0.3,0.1,0.4c0.1,1,0.2,1.9,0.2,2.9c0,0.7,0,1.4,0,2.1c0,1.2,0,2.3,0,3.5c0,5.8,0,11.5,0,17.3c0,11.5,0,22.9,0,34.4
			c0,4.9,4.3,9.5,9.3,9.3c5-0.2,9.3-4.1,9.3-9.3c0-10.7,0-21.3,0-32c0-6.3,0-12.7,0-19c0-5.2,0-10.3-1.1-15.5
			c-2.7-12-12.1-23.9-23.2-29.2c-10.4-4.9-23.1-6.5-34.2-3c-11.2,3.6-21,11.8-26.2,22.4c-3.5,7.3-4.8,14.9-4.8,22.9
			c0,12.7,0,25.4,0,38.1C178.5,158.2,182.8,162.9,187.8,162.6z M212.8,88.4C213.4,88,213.1,88.2,212.8,88.4L212.8,88.4z M207.1,91.7
			C206.3,92.4,206.8,92,207.1,91.7L207.1,91.7z"/>
		<path class="st17" d="M192.5,120.3c0.3,2.5,2.6,4.4,5.2,4.1c2.5-0.3,4.4-2.6,4.1-5.2c-1-8.5,1.2-16.4,6-21.7
			c4.1-4.4,9.6-6.5,16.1-6.2c2.6,0.1,4.7-1.9,4.9-4.4c0.1-2.6-1.9-4.7-4.4-4.9c-0.5,0-1,0-1.6,0c-8.5,0-16.2,3.2-21.8,9.2
			C194.2,98.4,191.2,109,192.5,120.3z"/>
		<path class="st19" d="M175.2,118.2v38c0,3.9,2.4,7.5,6,9c3.4,1.4,7.3,0.9,10.1-1.5c0.1-0.1,0.3-0.1,0.3-0.2c0,0,0.1,0,0.6-0.1
			c2.8-0.6,6.4,0.5,9.3,1.7c2.2,1,10,6.3,14.8,9.5c5,3.4,7.9,5.3,9.4,6.1c11.5,6.1,23.8,6.3,33.1,0.4c4.2-2.7,7.5-6.3,9.5-10.5
			c2.2-4.7,2.2-9.2,2.2-13.2v-44.2c0-10.5-2.6-19.6-7.6-27.3c-6.5-9.8-16.6-17.1-27.7-20c-3.9-1-8-1.5-12-1.5
			c-7.6,0-15.2,1.8-22.1,5.4c-10.6,5.4-18.7,14.5-22.9,25.5C175.2,103.1,175.2,110.8,175.2,118.2z M189.7,99.8
			c6.3-16.7,24.9-26.2,42.3-21.7c8.2,2.1,15.7,7.5,20.5,14.8c3.7,5.6,5.6,12.5,5.6,20.5v44.2c0,3.2,0,5.7-1,7.9
			c-1,2-2.7,3.9-4.9,5.3c-2.5,1.6-5.5,2.4-8.7,2.4c-3.8,0-7.9-1.1-11.9-3.2c-0.9-0.5-5-3.2-8.3-5.4c-8.3-5.6-13.9-9.3-16.7-10.6
			l-0.3-0.1c-3.6-1.4-8-2.8-12.7-2.8c-2.3-0.3-5.8-1.5-5.9-6.3v-24.9v-1.5C187.6,111.6,187.6,105.4,189.7,99.8z"/>
	</g>
</g>
</svg>
