<svg width="300px" height="200px" viewBox="0 0 557.8 389" xml:space="preserve" xmlns="http://www.w3.org/2000/svg">
	<path style="fill:#DCFFFB;" d="m162.2 284.9c-8.9 0-16.1-7.2-16.1-16.1v-234.5c0-8.9 7.2-16.1 16.1-16.1h234.4c8.9 0 16.1 7.2 16.1 16.1v234.6c0 8.8-7.2 16-16 16h-234.5z"/>
    <path style="fill:#E6F1FF;" d="m196.5 148.7c0 17.3 14 31.3 31.3 31.3s31.3-14 31.3-31.3v-47.9c0-17.3-14-31.3-31.3-31.3s-31.3 14-31.3 31.3v47.9z"/>
    <path style="fill:#F3F8FF;" d="m228.1 85.1c-9.2 0-16.6 7.5-16.6 16.6v39.7c0 9.2 7.5 16.6 16.6 16.6 9.2 0 16.6-7.5 16.6-16.6v-39.7c0.1-9.1-7.5-16.6-16.6-16.6z"/>
    <path style="fill:#DD3773;" d="m274.4 154.8c0-5.5-3.6-10.6-9.1-12.9-4.4-1.8-9.3-1.4-13.2 1.2-0.6-0.1-1.7-0.2-3.9-1.1-3-1.3-5.5-2.7-7.6-4.3-0.1 0-0.1-0.1-0.2-0.2l-1.4-1.1c-0.7-0.5-1.3-1-1.8-1.4-2.6-2.1-5.3-4.1-8.7-6-11.5-6.1-24-6.1-33.5-0.2-4.5 2.8-7.9 6.7-10.1 11.2-2 4.1-2.9 8.6-2.9 13.5v37.5c0 9.4 2.6 18.2 7.9 26.1 6.2 9.4 15.9 16.4 26.7 19.2 3.7 1 7.6 1.5 11.5 1.5 7.3 0 14.7-1.7 21.2-5.1 10.2-5.2 18-13.9 22-24.5 3-7.9 3.3-15.4 3.3-21.2l-0.2-32.2z"/>
    <path style="fill:#2E3A56;" d="m228.1 65.2c-19.6 0-35.6 16.1-35.6 35.9v46c0 19.9 16 35.9 35.6 35.9s35.6-16.1 35.6-35.9v-46c0-19.7-16-35.9-35.6-35.9zm23.8 82c0 13.3-10.7 24.2-23.8 24.2s-23.8-10.8-23.8-24.2v-46c0-13.3 10.7-24.2 23.8-24.2s23.8 10.8 23.8 24.2v46z"/>
    <path style="fill:#DD3773;" d="m263 184.9v-30.7c0-2.6-3.4-4.1-5.2-2.2l-0.1 0.1c-0.1 0-0.1 0.1-0.2 0.1-0.9 0.5-1.2 0.7-2.4 0.9-3.7 0.8-7.6-0.3-11-1.7-3.6-1.6-18.2-12-20.8-13.3-7-3.7-15.7-5-22.6-0.6-2.6 1.7-4.7 3.9-6 6.6-1.4 3-1.3 6-1.3 9.3v36.8c0 7.1 1.6 14.1 5.5 20.1 4.7 7.1 12 12.5 20.3 14.7 17.3 4.5 35.5-4.8 41.8-21.5 2.2-6 2-12.3 2-18.6zm-29.2-39.3c-0.4-0.2-0.1 0 0 0z"/>
    <path style="fill:#CC296B;" d="m257.1 150.3c-4.1 0.2-7.7 3.4-7.7 7.7v26.4c0 3.4 0.2 6.8-0.1 10.1 0-0.7-0.3 1.7-0.4 2.2-0.2 0.9-0.5 1.8-0.7 2.7-0.1 0.2-0.3 0.9-0.3 1-0.1 0.2-0.2 0.5-0.3 0.7l-1.5 2.7c-0.3 0.5-0.7 1-1 1.4 0.2-0.2 0.9-1.1-0.1 0.1-0.6 0.7-1.2 1.4-1.8 2-0.7 0.6-1.2 1.2-2 1.7-0.1 0.1-0.1 0.1-0.2 0.1-0.6 0.4-1.2 0.7-1.7 1.2-0.7 0.5-1.6 0.9-2.4 1.3-0.1 0-0.2 0.1-0.2 0.1-0.4 0.2-0.7 0.3-1.2 0.4-1 0.3-2 0.6-3.1 0.8-0.1 0-0.4 0.1-0.7 0.2-0.2 0-0.6 0.1-0.7 0.1-4.3 0.2-6.3 0.1-10.2-1.1-0.5-0.2-1-0.3-1.5-0.5-0.1 0-0.6-0.2-0.7-0.2-0.8-0.4-1.6-0.8-2.3-1.2-0.3-0.2-0.7-0.4-1-0.7-0.2-0.1-0.5-0.4-0.6-0.4-0.9-0.9-1.9-1.8-2.7-2.7-2.7-2.8-4.3-5.4-5.3-9.2-0.2-0.5-0.2-1-0.3-1.5 0-0.2-0.1-0.2-0.1-0.3-0.1-0.8-0.2-1.6-0.2-2.4v-1.7-2.9-14.3-28.5c0-4.1-3.6-7.9-7.7-7.7s-7.7 3.4-7.7 7.7v26.5 15.7c0 4.3 0 8.5 0.9 12.8 2.2 9.9 10 19.8 19.2 24.2 8.6 4.1 19.1 5.4 28.3 2.5 9.3-3 17.4-9.8 21.7-18.5 2.9-6 4-12.3 4-19v-31.5c0-4.4-3.5-8.2-7.7-8zm-20.6 61.5c-0.6 0.3-0.3 0.1 0 0zm4.6-2.8c0.7-0.6 0.4-0.3 0 0z"/>
    <path style="fill:#F3F8FF;" d="m253.2 185.3c-0.2-2.1-2.2-3.6-4.3-3.4s-3.6 2.2-3.4 4.3c0.8 7-1 13.6-5 18-3.4 3.6-7.9 5.4-13.3 5.1-2.2-0.1-3.9 1.6-4.1 3.6-0.1 2.2 1.6 3.9 3.6 4.1h1.3c7 0 13.4-2.6 18.1-7.6 5.7-6 8.3-14.7 7.1-24.1z"/>
    <path style="fill:#2E3A56;" d="m267.6 187.1v-31.5c0-3.2-2-6.2-5-7.5-2.8-1.2-6-0.7-8.4 1.2-0.1 0.1-0.2 0.1-0.2 0.2 0 0-0.1 0-0.5 0.1-2.3 0.5-5.3-0.4-7.7-1.4-1.8-0.8-8.3-5.2-12.3-7.9-4.1-2.8-6.5-4.4-7.8-5.1-9.5-5.1-19.7-5.2-27.4-0.3-3.5 2.2-6.2 5.2-7.9 8.7-1.8 3.9-1.8 7.6-1.8 10.9v36.6c0 8.7 2.2 16.2 6.3 22.6 5.4 8.1 13.7 14.2 22.9 16.6 3.2 0.8 6.6 1.2 9.9 1.2 6.3 0 12.6-1.5 18.3-4.5 8.8-4.5 15.5-12 19-21.1 2.6-6.3 2.6-12.7 2.6-18.8zm-12.1 15.3c-5.2 13.8-20.6 21.7-35 18-6.8-1.7-13-6.2-17-12.3-3.1-4.6-4.6-10.4-4.6-17v-36.6c0-2.6 0-4.7 0.8-6.5 0.8-1.7 2.2-3.2 4.1-4.4 2.1-1.3 4.6-2 7.2-2 3.1 0 6.5 0.9 9.9 2.6 0.7 0.4 4.1 2.6 6.9 4.5 6.9 4.6 11.5 7.7 13.8 8.8l0.2 0.1c3 1.2 6.6 2.3 10.5 2.3 1.9 0.2 4.8 1.2 4.9 5.2v21.8c0.2 5.6 0.2 10.7-1.7 15.5z"/>
    <path style="fill:#E6F1FF;" d="m362.3 154.5c0-17.3-14-31.3-31.3-31.3s-31.3 14-31.3 31.3v47.9c0 17.3 14 31.3 31.3 31.3s31.3-14 31.3-31.3v-47.9z"/>
    <path style="fill:#F3F8FF;" d="m330.7 218.1c9.2 0 16.6-7.5 16.6-16.6v-39.7c0-9.2-7.5-16.6-16.6-16.6-9.2 0-16.6 7.5-16.6 16.6v39.7c0 9.2 7.4 16.6 16.6 16.6z"/>
    <path style="fill:#33E5E1;" d="m284.4 148.5c0 5.5 3.6 10.6 9.1 12.9 4.4 1.8 9.3 1.4 13.2-1.2 0.6 0.1 1.7 0.2 3.9 1.1 3 1.3 5.5 2.7 7.6 4.3 0.1 0 0.1 0.1 0.2 0.2l1.4 1.1c0.7 0.5 1.3 1 1.8 1.4 2.6 2.1 5.3 4.1 8.7 6 11.5 6.1 24 6.1 33.5 0.2 4.5-2.8 7.9-6.7 10.1-11.2 2-4.1 2.9-8.6 2.9-13.5v-37.5c0-9.4-2.6-18.2-7.9-26.1-6.2-9.4-15.9-16.4-26.7-19.2-3.7-1-7.6-1.5-11.5-1.5-7.3 0-14.7 1.7-21.2 5.1-10.2 5.2-18 13.9-22 24.5-3 7.9-3.3 15.4-3.3 21.2l0.2 32.2z"/>
    <path style="fill:#2E3A56;" d="m330.7 238c19.6 0 35.6-16.1 35.6-35.9v-46c0-19.9-16-35.9-35.6-35.9s-35.6 16.1-35.6 35.9v46c0 19.7 16 35.9 35.6 35.9zm-23.7-82c0-13.3 10.7-24.2 23.8-24.2s23.8 10.8 23.8 24.2v46c0 13.3-10.7 24.2-23.8 24.2s-23.8-10.8-23.8-24.2v-46z"/>
    <path style="fill:#33E5E1;" d="m295.8 118.3v30.7c0 2.6 3.4 4.1 5.2 2.2l0.1-0.1c0.1 0 0.1-0.1 0.2-0.1 0.9-0.5 1.2-0.7 2.4-0.9 3.7-0.8 7.6 0.3 11 1.7 3.6 1.6 18.2 12 20.8 13.3 7 3.7 15.7 5 22.6 0.6 2.6-1.7 4.7-3.9 6-6.6 1.4-3 1.3-6 1.3-9.3v-36.8c0-7.1-1.6-14.1-5.5-20.1-4.7-7.1-12-12.5-20.3-14.7-17.3-4.5-35.5 4.8-41.8 21.5-2.2 6-2 12.3-2 18.6zm29.2 39.4c0.4 0.2 0.1 0 0 0s0-0.1 0 0z"/>
    <path style="fill:#32C9CB;" d="m301.7 152.9c4.1-0.2 7.7-3.4 7.7-7.7v-26.4c0-3.4-0.2-6.8 0.1-10.1 0 0.7 0.3-1.7 0.4-2.2 0.2-0.9 0.5-1.8 0.7-2.7 0.1-0.2 0.3-0.9 0.3-1 0.1-0.2 0.2-0.5 0.3-0.7l1.5-2.7c0.3-0.5 0.7-1 1-1.4-0.2 0.2-0.9 1.1 0.1-0.1 0.6-0.7 1.2-1.4 1.8-2 0.7-0.6 1.2-1.2 2-1.7 0.1-0.1 0.1-0.1 0.2-0.1 0.6-0.4 1.2-0.7 1.7-1.2 0.7-0.5 1.6-0.9 2.4-1.3 0.1 0 0.2-0.1 0.2-0.1 0.4-0.2 0.7-0.3 1.2-0.4 1-0.3 2-0.6 3.1-0.8 0.1 0 0.4-0.1 0.7-0.2 0.2 0 0.6-0.1 0.7-0.1 4.3-0.2 6.3-0.1 10.2 1.1 0.5 0.2 1 0.3 1.5 0.5 0.1 0 0.6 0.2 0.7 0.2 0.8 0.4 1.6 0.8 2.3 1.2 0.3 0.2 0.7 0.4 1 0.7 0.2 0.1 0.5 0.4 0.6 0.4 0.9 0.9 1.9 1.8 2.7 2.7 2.7 2.8 4.3 5.4 5.3 9.2 0.2 0.5 0.2 1 0.3 1.5 0 0.2 0.1 0.2 0.1 0.3 0.1 0.8 0.2 1.6 0.2 2.4v1.7 2.9 14.3 28.5c0 4.1 3.6 7.9 7.7 7.7s7.7-3.4 7.7-7.7v-26.5-15.7c0-4.3 0-8.5-0.9-12.8-2.2-9.9-10-19.8-19.2-24.2-8.6-4.1-19.1-5.4-28.3-2.5-9.3 3-17.4 9.8-21.7 18.5-2.9 6-4 12.3-4 19v31.5c0 4.4 3.5 8.3 7.7 8zm20.7-61.4c0.5-0.3 0.2-0.2 0 0zm-4.7 2.7c-0.7 0.6-0.3 0.3 0 0z"/>
    <path style="fill:#F3F8FF;" d="m305.6 117.9c0.2 2.1 2.2 3.6 4.3 3.4s3.6-2.2 3.4-4.3c-0.8-7 1-13.6 5-18 3.4-3.6 7.9-5.4 13.3-5.1 2.2 0.1 3.9-1.6 4.1-3.6 0.1-2.2-1.6-3.9-3.6-4.1h-1.3c-7 0-13.4 2.6-18.1 7.6-5.7 6-8.2 14.7-7.1 24.1z"/>
    <path style="fill:#2E3A56;" d="m291.2 116.2v31.5c0 3.2 2 6.2 5 7.5 2.8 1.2 6 0.7 8.4-1.2 0.1-0.1 0.2-0.1 0.2-0.2 0 0 0.1 0 0.5-0.1 2.3-0.5 5.3 0.4 7.7 1.4 1.8 0.8 8.3 5.2 12.3 7.9 4.1 2.8 6.5 4.4 7.8 5.1 9.5 5.1 19.7 5.2 27.4 0.3 3.5-2.2 6.2-5.2 7.9-8.7 1.8-3.9 1.8-7.6 1.8-10.9v-36.8c0-8.7-2.2-16.2-6.3-22.6-5.4-8.1-13.7-14.2-22.9-16.6-3.2-0.8-6.6-1.2-9.9-1.2-6.3 0-12.6 1.5-18.3 4.5-8.8 4.5-15.5 12-19 21.1-2.6 6.5-2.6 12.8-2.6 19zm12-15.3c5.2-13.8 20.6-21.7 35-18 6.8 1.7 13 6.2 17 12.3 3.1 4.6 4.6 10.4 4.6 17v36.6c0 2.6 0 4.7-0.8 6.5-0.8 1.7-2.2 3.2-4.1 4.4-2.1 1.3-4.6 2-7.2 2-3.1 0-6.5-0.9-9.9-2.6-0.7-0.4-4.1-2.6-6.9-4.5-6.9-4.6-11.5-7.7-13.8-8.8l-0.2-0.1c-3-1.2-6.6-2.3-10.5-2.3-1.9-0.2-4.8-1.2-4.9-5.2v-21.8c0-5.7 0-10.8 1.7-15.5z"/>
	<rect style="fill:none;" x="-238.3" y="163.3" width="830.5" height="170.4"/>
	<text style="fill:#2D3955;font-family:'Roboto-Bold';font-size:70px;" transform="translate(11.591 357.62)">Capsules</text>
	<text style="fill:#2D3955;font-family:'Roboto-Light';font-size:70px;" transform="translate(318.93 357.63)">Articles</text>
</svg>
