<?xml version="1.0" encoding="utf-8"?>
<!-- Generator: Adobe Illustrator 26.2.1, SVG Export Plug-In . SVG Version: 6.00 Build 0)  -->
<svg version="1.1" id="Calque_1" xmlns="http://www.w3.org/2000/svg" xmlns:xlink="http://www.w3.org/1999/xlink" x="0px" y="0px"
	 viewBox="0 0 80 80" style="enable-background:new 0 0 80 80;" xml:space="preserve">
<style type="text/css">
	.st0{fill:#A85ABF;}
	.st1{fill-rule:evenodd;clip-rule:evenodd;fill:#FFFFFF;}
</style>
<path class="st0" d="M0,40c0-10.6,4.2-20.8,11.7-28.3c15.6-15.6,40.9-15.6,56.6,0s15.6,40.9,0,56.6s-40.9,15.6-56.6,0
	C4.2,60.8,0,50.6,0,40z"/>
<path class="st1" d="M38.4,20.9c1.1,0,2,0.7,2.2,1.7l4.9,24.1l2.3-4.2c0.4-0.7,1.1-1.1,2-1.1h21.2c1.2,0,2.2,0.9,2.2,2.1
	c0,1.1-1,2.1-2.2,2.1H51.1L46.4,54c-0.4,0.8-1.4,1.2-2.3,1.1c-0.9-0.1-1.7-0.8-1.9-1.7l-4.1-20l-4.6,20c-0.2,0.9-1.1,1.6-2.1,1.6
	c-1,0-1.9-0.6-2.2-1.6l-3.6-13.2l-2.3,4.1c-0.4,0.7-1.1,1.1-2,1.1H9.1c-1.2,0-2.2-0.9-2.2-2.1c0-1.1,1-2.1,2.2-2.1H20l4.4-7.7
	c0.4-0.8,1.3-1.2,2.2-1.1c0.9,0.1,1.7,0.7,1.9,1.5l2.7,9.8l5-21.4C36.4,21.6,37.3,20.9,38.4,20.9z"/>
</svg>
